<?xml version="1.0" encoding="utf-8"?>
<!-- Generator: Adobe Illustrator 16.0.3, SVG Export Plug-In . SVG Version: 6.00 Build 0)  -->
<!DOCTYPE svg PUBLIC "-//W3C//DTD SVG 1.1//EN" "http://www.w3.org/Graphics/SVG/1.1/DTD/svg11.dtd">
<svg version="1.1" xmlns="http://www.w3.org/2000/svg" xmlns:xlink="http://www.w3.org/1999/xlink" x="0px" y="0px"
	 width="100%" height="100%" viewBox="0 0 529.588 443.097" enable-background="new 0 0 529.588 443.097"
	 xml:space="preserve">
<g id="Capa_2">
</g>
<g id="Capa_1">
	<polygon fill="#0071BC" points="180.616,299.008 97.853,156.008 180.616,13.008 346.141,13.008 428.904,156.008 346.141,299.008 	
		"/>
	<path fill="#FFFFFF" d="M350.843,128.083l-86.126-43.439l26.582-32.525c1.383-1.692,3.771-2.171,5.698-1.141l76.715,40.931
		c2.556,1.365,3.217,4.731,1.367,6.962L350.843,128.083L350.843,128.083z M237.765,52.177l25.485,32.468l-85.36,43.439
		l-25.579-29.892c-1.921-2.247-1.241-5.697,1.39-7.047l78.375-40.213C234.025,49.931,236.411,50.452,237.765,52.177z M261.88,168.99
		l-14.59,41.21c-0.347,0.982-1.477,1.433-2.407,0.967l-79.966-41c-1.327-0.67-1.938-2.229-1.417-3.619l14.329-38.329L261.88,168.99
		L261.88,168.99z M261.212,185.09v75.591c0,0.998-1.035,1.662-1.941,1.241l-84.157-39.607c-1.596-0.743-2.615-2.347-2.602-4.107
		l0.249-36.057c0.01-1.103,1.173-1.812,2.157-1.315l71.749,37.063c1.322,0.667,2.934,0.047,3.464-1.336L261.212,185.09z
		 M280.498,210.503l-14.085-41.513l84.43-40.771l16.068,37.843c0.604,1.427-0.013,3.081-1.407,3.757l-83.506,41.309
		C281.412,211.415,280.708,211.12,280.498,210.503z M355.416,218.616c0,1.514-0.879,2.889-2.25,3.529l-84.238,39.775
		c-0.906,0.422-1.944-0.24-1.944-1.24v-75.59l10.42,31.857c0.38,1.075,1.612,1.572,2.632,1.067l72.637-36.611
		c1.262-0.627,2.744,0.291,2.744,1.699V218.616z"/>
	<g>
		<path d="M57.015,435.425c-7.488,0-14.664-1.003-21.527-3.009c-6.865-2.005-12.391-4.612-16.58-7.821l7.354-16.313
			c4.011,2.854,8.758,5.193,14.24,7.02c5.482,1.828,11.031,2.741,16.646,2.741c4.279,0,7.732-0.422,10.362-1.271
			c2.628-0.846,4.567-2.026,5.816-3.543c1.247-1.515,1.872-3.253,1.872-5.215c0-2.494-0.982-4.479-2.942-5.95
			c-1.961-1.471-4.546-2.674-7.755-3.61s-6.752-1.826-10.63-2.674c-3.877-0.846-7.755-1.893-11.633-3.142
			c-3.877-1.247-7.42-2.852-10.629-4.813c-3.209-1.959-5.816-4.546-7.822-7.755c-2.005-3.209-3.008-7.308-3.008-12.301
			c0-5.349,1.448-10.229,4.346-14.641c2.896-4.413,7.264-7.933,13.103-10.563c5.837-2.628,13.17-3.944,21.995-3.944
			c5.883,0,11.677,0.691,17.382,2.072c5.703,1.383,10.74,3.456,15.109,6.218l-6.686,16.446c-4.368-2.494-8.737-4.345-13.104-5.549
			c-4.368-1.203-8.647-1.805-12.836-1.805c-4.191,0-7.621,0.491-10.295,1.471c-2.674,0.982-4.592,2.252-5.75,3.811
			c-1.159,1.561-1.738,3.366-1.738,5.415c0,2.407,0.98,4.346,2.942,5.816c1.959,1.471,4.546,2.653,7.755,3.543
			c3.209,0.892,6.752,1.784,10.63,2.674c3.877,0.892,7.755,1.918,11.633,3.075c3.877,1.16,7.42,2.72,10.629,4.68
			c3.209,1.961,5.816,4.546,7.822,7.755c2.005,3.209,3.008,7.266,3.008,12.167c0,5.261-1.471,10.074-4.413,14.44
			c-2.941,4.368-7.333,7.889-13.17,10.563C73.305,434.088,65.928,435.425,57.015,435.425z"/>
		<path d="M111.566,433.82v-93.596h21.661v93.596H111.566z"/>
		<path d="M155.421,433.82v-93.596h17.917l39.845,66.052h-9.494l39.177-66.052h17.783l0.268,93.596h-20.324l-0.134-62.442h3.744
			l-31.288,52.547h-9.761l-31.956-52.547h4.546v62.442H155.421z"/>
		<path d="M327.903,435.425c-7.22,0-13.929-1.183-20.123-3.543c-6.197-2.361-11.566-5.727-16.112-10.096
			c-4.546-4.366-8.089-9.493-10.63-15.376c-2.541-5.883-3.811-12.345-3.811-19.388c0-7.041,1.27-13.504,3.811-19.388
			s6.104-11.008,10.697-15.376c4.59-4.366,9.961-7.732,16.112-10.095c6.15-2.36,12.88-3.543,20.19-3.543
			c8.11,0,15.443,1.404,21.995,4.212c6.552,2.808,12.055,6.932,16.513,12.368l-13.906,12.836c-3.209-3.654-6.775-6.395-10.697-8.223
			c-3.923-1.826-8.202-2.741-12.836-2.741c-4.368,0-8.379,0.714-12.034,2.139c-3.656,1.427-6.819,3.477-9.493,6.151
			c-2.674,2.674-4.747,5.839-6.217,9.493c-1.471,3.656-2.207,7.711-2.207,12.167c0,4.458,0.735,8.514,2.207,12.167
			c1.471,3.656,3.543,6.819,6.217,9.494c2.674,2.674,5.837,4.726,9.493,6.15c3.654,1.427,7.666,2.139,12.034,2.139
			c4.634,0,8.913-0.912,12.836-2.74c3.921-1.826,7.488-4.613,10.697-8.357l13.906,12.836c-4.458,5.438-9.961,9.583-16.513,12.436
			C343.48,433.998,336.103,435.425,327.903,435.425z"/>
		<path d="M366.944,433.82l41.717-93.596h21.393l41.851,93.596h-22.73l-34.229-82.632h8.557L389.14,433.82H366.944z
			 M387.803,413.764l5.75-16.446h48.135l5.883,16.446H387.803z"/>
		<path d="M481.665,433.82v-93.596h21.661v93.596H481.665z"/>
	</g>
	<g>
	</g>
	<g>
	</g>
	<g>
	</g>
	<g>
	</g>
	<g>
	</g>
	<g>
	</g>
	<g>
	</g>
	<g>
	</g>
	<g>
	</g>
	<g>
	</g>
	<g>
	</g>
	<g>
	</g>
	<g>
	</g>
	<g>
	</g>
	<g>
	</g>
</g>
</svg>
